<mxfile modified="2023-03-15T21:54:50.096Z" host="Electron" agent="5.0 (Windows NT 10.0; Win64; x64) AppleWebKit/537.36 (KHTML, like Gecko) draw.io/20.3.0 Chrome/104.0.5112.114 Electron/20.1.3 Safari/537.36" etag="N0lCES4ez57OYeQvyCDf" compressed="false" version="20.3.0" type="device">
  <diagram id="yxZU2DEm4iZzCW52rLdR" name="Functionality/System Sponsor Information">
    <mxGraphModel dx="782" dy="517" grid="1" gridSize="10" guides="1" tooltips="1" connect="1" arrows="1" fold="1" page="1" pageScale="1" pageWidth="827" pageHeight="1169" math="0" shadow="0">
      <root>
        <mxCell id="oo6Vr2adObiN2sb_icYK-0" />
        <mxCell id="oo6Vr2adObiN2sb_icYK-1" parent="oo6Vr2adObiN2sb_icYK-0" />
        <mxCell id="oo6Vr2adObiN2sb_icYK-2" value="Information about the organisation that commissioned the system&#39;s development, including organisation Name, Contact channel information, etc." style="shape=note;whiteSpace=wrap;html=1;size=14;verticalAlign=top;align=left;spacingTop=-6;strokeWidth=1;fillColor=none;fontSize=12;" parent="oo6Vr2adObiN2sb_icYK-1" vertex="1">
          <mxGeometry x="500" y="158" width="180" height="122" as="geometry" />
        </mxCell>
        <UserObject label="" tooltip="ABOUT&#xa;&#xa;The sponsor is the organisation that is paying for the development of the system.&#xa;&#xa;&#xa;&#xa;Note that a User Interface will most probably want to refer to the Reseller information." id="oo6Vr2adObiN2sb_icYK-12">
          <mxCell style="shape=image;html=1;verticalAlign=top;verticalLabelPosition=bottom;labelBackgroundColor=#ffffff;imageAspect=0;aspect=fixed;image=https://cdn1.iconfinder.com/data/icons/hawcons/32/699014-icon-28-information-128.png;shadow=0;dashed=0;fontFamily=Helvetica;fontSize=12;fontColor=#000000;align=center;strokeColor=#000000;fillColor=#505050;dashPattern=1 1;" parent="oo6Vr2adObiN2sb_icYK-1" vertex="1">
            <mxGeometry x="660" y="500" width="20" height="20" as="geometry" />
          </mxCell>
        </UserObject>
        <mxCell id="CLIJWOrEgC-jbOSIcOap-0" value="" style="fontStyle=1;align=center;verticalAlign=top;childLayout=stackLayout;horizontal=1;horizontalStack=0;resizeParent=1;resizeParentMax=0;resizeLast=0;marginBottom=0;strokeColor=#82b366;strokeWidth=2;fillColor=none;" parent="oo6Vr2adObiN2sb_icYK-1" vertex="1">
          <mxGeometry x="360" y="160" width="120" height="63" as="geometry" />
        </mxCell>
        <mxCell id="CLIJWOrEgC-jbOSIcOap-1" value="Create Sponsor&amp;nbsp;&lt;br&gt;Information" style="html=1;align=left;spacingLeft=4;verticalAlign=middle;strokeColor=none;fillColor=none;fontStyle=1" parent="CLIJWOrEgC-jbOSIcOap-0" vertex="1">
          <mxGeometry width="120" height="30" as="geometry" />
        </mxCell>
        <mxCell id="CLIJWOrEgC-jbOSIcOap-2" value="" style="shape=ellipse;" parent="CLIJWOrEgC-jbOSIcOap-1" vertex="1">
          <mxGeometry x="1" width="10" height="16" relative="1" as="geometry">
            <mxPoint x="-25" y="7" as="offset" />
          </mxGeometry>
        </mxCell>
        <mxCell id="CLIJWOrEgC-jbOSIcOap-3" value="" style="line;strokeWidth=1;fillColor=none;align=left;verticalAlign=middle;spacingTop=-1;spacingLeft=3;spacingRight=3;rotatable=0;labelPosition=right;points=[];portConstraint=eastwest;" parent="CLIJWOrEgC-jbOSIcOap-0" vertex="1">
          <mxGeometry y="30" width="120" height="8" as="geometry" />
        </mxCell>
        <mxCell id="CLIJWOrEgC-jbOSIcOap-4" value="." style="html=1;align=center;spacingLeft=4;verticalAlign=top;strokeColor=none;fillColor=none;" parent="CLIJWOrEgC-jbOSIcOap-0" vertex="1">
          <mxGeometry y="38" width="120" height="25" as="geometry" />
        </mxCell>
        <mxCell id="-cuLXdW_yeup4GQhCKsX-1" value="is a" style="edgeStyle=none;rounded=0;orthogonalLoop=1;jettySize=auto;html=1;entryX=1;entryY=0.5;entryDx=0;entryDy=0;endArrow=block;endFill=0;" parent="oo6Vr2adObiN2sb_icYK-1" source="CLIJWOrEgC-jbOSIcOap-5" target="UNpgb18zed6lqye8b_kz-0" edge="1">
          <mxGeometry relative="1" as="geometry" />
        </mxCell>
        <mxCell id="CLIJWOrEgC-jbOSIcOap-5" value="&lt;p style=&quot;line-height: 100%&quot;&gt;&amp;lt;&amp;lt;actor&amp;gt;&amp;gt;&lt;br&gt;&lt;br&gt;&lt;b&gt;Developer&lt;/b&gt;&lt;/p&gt;" style="text;html=1;align=center;verticalAlign=middle;dashed=0;strokeColor=#000000;strokeWidth=2;" parent="oo6Vr2adObiN2sb_icYK-1" vertex="1">
          <mxGeometry x="240" y="163" width="80" height="60" as="geometry" />
        </mxCell>
        <mxCell id="CLIJWOrEgC-jbOSIcOap-6" value="" style="fontStyle=1;align=center;verticalAlign=top;childLayout=stackLayout;horizontal=1;horizontalStack=0;resizeParent=1;resizeParentMax=0;resizeLast=0;marginBottom=0;strokeColor=#82b366;strokeWidth=2;fillColor=none;" parent="oo6Vr2adObiN2sb_icYK-1" vertex="1">
          <mxGeometry x="360" y="250" width="120" height="63" as="geometry" />
        </mxCell>
        <mxCell id="CLIJWOrEgC-jbOSIcOap-7" value="Edit Sponsor&amp;nbsp;&lt;br&gt;Information" style="html=1;align=left;spacingLeft=4;verticalAlign=middle;strokeColor=none;fillColor=none;fontStyle=1" parent="CLIJWOrEgC-jbOSIcOap-6" vertex="1">
          <mxGeometry width="120" height="30" as="geometry" />
        </mxCell>
        <mxCell id="CLIJWOrEgC-jbOSIcOap-8" value="" style="shape=ellipse;" parent="CLIJWOrEgC-jbOSIcOap-7" vertex="1">
          <mxGeometry x="1" width="10" height="16" relative="1" as="geometry">
            <mxPoint x="-25" y="7" as="offset" />
          </mxGeometry>
        </mxCell>
        <mxCell id="CLIJWOrEgC-jbOSIcOap-9" value="" style="line;strokeWidth=1;fillColor=none;align=left;verticalAlign=middle;spacingTop=-1;spacingLeft=3;spacingRight=3;rotatable=0;labelPosition=right;points=[];portConstraint=eastwest;" parent="CLIJWOrEgC-jbOSIcOap-6" vertex="1">
          <mxGeometry y="30" width="120" height="8" as="geometry" />
        </mxCell>
        <mxCell id="CLIJWOrEgC-jbOSIcOap-10" value="." style="html=1;align=center;spacingLeft=4;verticalAlign=top;strokeColor=none;fillColor=none;" parent="CLIJWOrEgC-jbOSIcOap-6" vertex="1">
          <mxGeometry y="38" width="120" height="25" as="geometry" />
        </mxCell>
        <mxCell id="CLIJWOrEgC-jbOSIcOap-11" value="" style="fontStyle=1;align=center;verticalAlign=top;childLayout=stackLayout;horizontal=1;horizontalStack=0;resizeParent=1;resizeParentMax=0;resizeLast=0;marginBottom=0;strokeColor=#82b366;strokeWidth=2;fillColor=none;" parent="oo6Vr2adObiN2sb_icYK-1" vertex="1">
          <mxGeometry x="360" y="340" width="120" height="63" as="geometry" />
        </mxCell>
        <mxCell id="CLIJWOrEgC-jbOSIcOap-12" value="&lt;p style=&quot;line-height: 90%&quot;&gt;Retrieve/View&lt;br&gt;Sponsor&amp;nbsp;&lt;br&gt;Information&lt;/p&gt;" style="html=1;align=left;spacingLeft=4;verticalAlign=middle;strokeColor=none;fillColor=none;fontStyle=1" parent="CLIJWOrEgC-jbOSIcOap-11" vertex="1">
          <mxGeometry width="120" height="30" as="geometry" />
        </mxCell>
        <mxCell id="CLIJWOrEgC-jbOSIcOap-13" value="" style="shape=ellipse;" parent="CLIJWOrEgC-jbOSIcOap-12" vertex="1">
          <mxGeometry x="1" width="10" height="16" relative="1" as="geometry">
            <mxPoint x="-25" y="7" as="offset" />
          </mxGeometry>
        </mxCell>
        <mxCell id="CLIJWOrEgC-jbOSIcOap-14" value="" style="line;strokeWidth=1;fillColor=none;align=left;verticalAlign=middle;spacingTop=-1;spacingLeft=3;spacingRight=3;rotatable=0;labelPosition=right;points=[];portConstraint=eastwest;" parent="CLIJWOrEgC-jbOSIcOap-11" vertex="1">
          <mxGeometry y="30" width="120" height="8" as="geometry" />
        </mxCell>
        <mxCell id="CLIJWOrEgC-jbOSIcOap-15" value="." style="html=1;align=center;spacingLeft=4;verticalAlign=top;strokeColor=none;fillColor=none;" parent="CLIJWOrEgC-jbOSIcOap-11" vertex="1">
          <mxGeometry y="38" width="120" height="25" as="geometry" />
        </mxCell>
        <mxCell id="PxuOIQVvpB4kQ0TRfYiV-2" style="edgeStyle=none;rounded=0;orthogonalLoop=1;jettySize=auto;html=1;endArrow=open;endFill=0;exitX=1;exitY=0.5;exitDx=0;exitDy=0;" parent="oo6Vr2adObiN2sb_icYK-1" source="UA5Y1slHJooClYF1M2y5-0" edge="1">
          <mxGeometry relative="1" as="geometry">
            <mxPoint x="360" y="372" as="targetPoint" />
          </mxGeometry>
        </mxCell>
        <mxCell id="UA5Y1slHJooClYF1M2y5-0" value="&lt;p style=&quot;line-height: 100%&quot;&gt;&amp;lt;&amp;lt;actor&amp;gt;&amp;gt;&lt;br&gt;&lt;br&gt;&lt;b&gt;UnAuthenticated&lt;br&gt;User&lt;/b&gt;&lt;/p&gt;" style="text;html=1;align=center;verticalAlign=middle;dashed=0;strokeColor=#000000;strokeWidth=2;" parent="oo6Vr2adObiN2sb_icYK-1" vertex="1">
          <mxGeometry x="120" y="341.5" width="80" height="60" as="geometry" />
        </mxCell>
        <mxCell id="PxuOIQVvpB4kQ0TRfYiV-3" style="edgeStyle=none;rounded=0;orthogonalLoop=1;jettySize=auto;html=1;entryX=0;entryY=0.75;entryDx=0;entryDy=0;endArrow=open;endFill=0;exitX=1;exitY=0.5;exitDx=0;exitDy=0;" parent="oo6Vr2adObiN2sb_icYK-1" source="CLIJWOrEgC-jbOSIcOap-5" target="CLIJWOrEgC-jbOSIcOap-7" edge="1">
          <mxGeometry relative="1" as="geometry" />
        </mxCell>
        <mxCell id="PxuOIQVvpB4kQ0TRfYiV-4" style="edgeStyle=none;rounded=0;orthogonalLoop=1;jettySize=auto;html=1;entryX=0;entryY=0.5;entryDx=0;entryDy=0;endArrow=open;endFill=0;exitX=1;exitY=0.25;exitDx=0;exitDy=0;" parent="oo6Vr2adObiN2sb_icYK-1" source="CLIJWOrEgC-jbOSIcOap-5" target="CLIJWOrEgC-jbOSIcOap-1" edge="1">
          <mxGeometry relative="1" as="geometry">
            <mxPoint x="330" y="203" as="sourcePoint" />
            <mxPoint x="370" y="282.5" as="targetPoint" />
          </mxGeometry>
        </mxCell>
        <mxCell id="UNpgb18zed6lqye8b_kz-0" value="&lt;p style=&quot;line-height: 100%&quot;&gt;&amp;lt;&amp;lt;actor&amp;gt;&amp;gt;&lt;br&gt;&lt;br&gt;&lt;b&gt;UnAudited&lt;br&gt;User&lt;/b&gt;&lt;/p&gt;" style="text;html=1;align=center;verticalAlign=middle;dashed=0;strokeColor=#000000;strokeWidth=2;" parent="oo6Vr2adObiN2sb_icYK-1" vertex="1">
          <mxGeometry x="120" y="210" width="80" height="60" as="geometry" />
        </mxCell>
        <mxCell id="UNpgb18zed6lqye8b_kz-2" style="edgeStyle=none;rounded=0;orthogonalLoop=1;jettySize=auto;html=1;entryX=0.007;entryY=-0.385;entryDx=0;entryDy=0;entryPerimeter=0;endArrow=open;endFill=0;" parent="oo6Vr2adObiN2sb_icYK-1" source="UNpgb18zed6lqye8b_kz-1" target="CLIJWOrEgC-jbOSIcOap-10" edge="1">
          <mxGeometry relative="1" as="geometry" />
        </mxCell>
        <mxCell id="UNpgb18zed6lqye8b_kz-3" value="is a" style="edgeStyle=none;rounded=0;orthogonalLoop=1;jettySize=auto;html=1;entryX=1;entryY=0.75;entryDx=0;entryDy=0;endArrow=block;endFill=0;exitX=0;exitY=0.5;exitDx=0;exitDy=0;" parent="oo6Vr2adObiN2sb_icYK-1" source="UNpgb18zed6lqye8b_kz-1" target="UNpgb18zed6lqye8b_kz-0" edge="1">
          <mxGeometry relative="1" as="geometry" />
        </mxCell>
        <mxCell id="UNpgb18zed6lqye8b_kz-1" value="&lt;p style=&quot;line-height: 100%&quot;&gt;&amp;lt;&amp;lt;actor&amp;gt;&amp;gt;&lt;br&gt;&lt;br&gt;&lt;b&gt;Deployment&lt;br&gt;Daemon&lt;/b&gt;&lt;/p&gt;" style="text;html=1;align=center;verticalAlign=middle;dashed=0;strokeColor=#000000;strokeWidth=2;" parent="oo6Vr2adObiN2sb_icYK-1" vertex="1">
          <mxGeometry x="240" y="250" width="80" height="60" as="geometry" />
        </mxCell>
        <mxCell id="C6N2JyYEg8s6NkK712IY-0" value="Title" parent="oo6Vr2adObiN2sb_icYK-0" visible="0" />
        <mxCell id="oo6Vr2adObiN2sb_icYK-11" value="&lt;font style=&quot;font-size: 12px&quot;&gt;Diagram: Base System Logical Module -&amp;nbsp;Functionality -&amp;nbsp;System Sponsor Information&lt;/font&gt;" style="text;strokeColor=none;fillColor=none;html=1;fontSize=12;fontStyle=2;verticalAlign=middle;align=left;shadow=0;glass=0;comic=0;opacity=30;fontColor=#808080;" parent="C6N2JyYEg8s6NkK712IY-0" vertex="1">
          <mxGeometry x="120" y="500" width="520" height="20" as="geometry" />
        </mxCell>
      </root>
    </mxGraphModel>
  </diagram>
</mxfile>
